HIERARCHY
ROOT pelvis
{
  OFFSET 0 100 0
  CHANNELS 6 Xposition Yposition Zposition Zrotation Xrotation Yrotation
  JOINT pelvis_right_femur
  {
    OFFSET -10.78128 -3.44521 -0.5502486
    CHANNELS 3 Zrotation Xrotation Yrotation
    JOINT right_femur_tibia
    {
      OFFSET -0.8047443 -44.0398 -0.1307829
      CHANNELS 3 Zrotation Xrotation Yrotation
      JOINT right_tibia_foot
      {
        OFFSET 3.006224 -47.83518 -5
        CHANNELS 3 Zrotation Xrotation Yrotation
        End Site
        {
          OFFSET 0 -5 15
        }
      }
    }
  }
  JOINT pelvis_left_femur
  {
    OFFSET 10.78128 -3.44521 -0.5502486
    CHANNELS 3 Zrotation Xrotation Yrotation
    JOINT left_femur_tibia
    {
      OFFSET 0.8047443 -44.0398 -0.1307829
      CHANNELS 3 Zrotation Xrotation Yrotation
      JOINT left_tibia_foot
      {
        OFFSET -4.370144 -48.10324 -4.275266
        CHANNELS 3 Zrotation Xrotation Yrotation
        End Site
        {
          OFFSET 0 -5 15
        }
      }
    }
  }
  JOINT pelvis_spine1
  {
    OFFSET 0 6.468898 -3.129235
    CHANNELS 3 Zrotation Xrotation Yrotation
    JOINT spine1
    {
      OFFSET 0 23.15396 4.99043
      CHANNELS 3 Zrotation Xrotation Yrotation
      JOINT spine2
      {
        OFFSET 0 20.79997 -5.064912
        CHANNELS 3 Zrotation Xrotation Yrotation
        JOINT neck
        {
          OFFSET 0 14.38658 9.616178
          CHANNELS 3 Zrotation Xrotation Yrotation
          End Site
          {
            OFFSET 0 20 0
          }
        }
      }
      JOINT right_manubrium
      {
        OFFSET -5.722621 16.35077 3.967754
        CHANNELS 3 Zrotation Xrotation Yrotation
        JOINT right_clavicle
        {
          OFFSET -13.16364 1.694482 -4.693211
          CHANNELS 3 Zrotation Xrotation Yrotation
          JOINT right_humerus
          {
            OFFSET -28.5034 -0.3100689 -2.792744
            CHANNELS 3 Zrotation Xrotation Yrotation
            JOINT right_radius
            {
              OFFSET -25.15693 0.02248979 -1.271978
              CHANNELS 3 Zrotation Xrotation Yrotation
              End Site
              {
                OFFSET -15 0 0
              }
            }
          }
        }
      }
      JOINT left_manubrium
      {
        OFFSET 5.722621 16.35077 3.967754
        CHANNELS 3 Zrotation Xrotation Yrotation
        JOINT left_clavicle
        {
          OFFSET 13.16364 1.694482 -4.693211
          CHANNELS 3 Zrotation Xrotation Yrotation
          JOINT left_humerus
          {
            OFFSET 29.39168 -1.063119 -2.237045
            CHANNELS 3 Zrotation Xrotation Yrotation
            JOINT left_radius
            {
              OFFSET 24.59957 -0.9528479 0.9047498
              CHANNELS 3 Zrotation Xrotation Yrotation
              End Site
              {
                OFFSET 15 -0 -0
              }
            }
          }
        }
      }
    }
  }
}
MOTION
Frames: 19
Frame Time: 0.0416666666667
47.5836 104.2904 3117.491 -0.6650611 -7.037852 -6.030315 5.023986 13.3587 3.839493 -0 11.45257 -0 -3.305653 -14.54185 -2.299291 2.738754 -23.4684 -2.476388 -0 26.68668 -0 -4.602592 -6.024277 19.03341 0.2396625 -0.4236017 6.408569 0.2427585 12.38355 -6.191256 1.196656 21.00921 3.722943 -1.97352 -22.83071 7.494721 -7.861466 -27.54132 10.76571 102.7003 28.85647 -19.22819 -0 0 13.73844 -15.0451 7.636549 14.16596 -4.208509 -20.0037 -10.13301 -82.39798 21.97801 26.43125 0 0 -43.07505 -5.340906 -0.4203778 24.86819
47.64829 103.1738 3123.655 -0.938742 -6.304594 -6.728852 4.63478 15.73242 3.743891 -0 12.80192 -0 -2.45546 -15.39325 -1.602041 3.107772 -24.94424 -2.357174 -0 19.93581 -0 -4.369757 -5.749437 19.10763 0.3141001 -0.5602497 6.783444 0.1126332 12.67905 -5.868021 1.238564 20.96819 3.361691 -2.209968 -22.59442 7.290745 -7.786069 -28.23537 10.83293 101.9416 28.72992 -17.97094 -0 0 15.24005 -15.48101 8.257783 14.81804 -4.583032 -19.43631 -10.11684 -83.8349 21.94467 28.86233 0 0 -40.82735 -6.029847 -0.6447748 25.76618
47.80111 102.1282 3130.224 -0.8785863 -6.015281 -7.356143 3.796679 17.85895 3.442547 -0 15.74316 -0 -1.755809 -14.79405 -1.070762 2.362885 -25.04885 -3.048917 -0 16.44526 -0 -4.406105 -5.895424 19.05035 0.3552246 -0.6489853 7.055049 0.02300792 12.88251 -5.634226 1.263124 20.93896 3.099708 -2.384648 -22.39677 7.136551 -7.707072 -28.74271 10.90132 101.3856 28.74761 -17.04021 -0 0 16.3276 -15.76106 8.701193 15.31824 -4.887693 -19.0065 -10.113 -84.83274 21.89621 30.61492 0 0 -39.31004 -6.548375 -0.8409761 26.4531
48.01123 101.415 3137.181 -0.4546371 -6.185537 -7.790136 2.586586 19.39123 3.000751 -0 20.61078 -0 -1.332786 -12.38651 -0.7779001 0.6575694 -23.90526 -4.365159 -0 16.0167 -0 -4.498676 -6.541674 18.91755 0.361006 -0.679831 7.199225 -0.01439349 12.97555 -5.515706 1.268983 20.92559 2.954559 -2.486462 -22.25184 7.040388 -7.641569 -29.01519 10.96635 101.0947 28.93246 -16.52751 -0 0 16.8833 -15.84308 8.917551 15.60991 -5.103599 -18.7602 -10.12685 -85.26977 21.85573 31.52533 0 0 -38.69952 -6.850213 -0.9697852 26.85888
48.24948 101.2484 3144.411 0.2085296 -6.652396 -7.894864 1.244292 19.71122 2.574954 -0 27.45934 -0 -1.221781 -8.200265 -0.7741485 -1.523502 -21.64956 -5.898077 -0 17.66197 -0 -4.318636 -7.537751 18.77811 0.3320018 -0.6482087 7.204725 0.006419183 12.951 -5.526183 1.25591 20.92695 2.933763 -2.509589 -22.16679 7.004313 -7.599433 -29.03274 11.02557 101.0999 29.29569 -16.47538 -0 0 16.85291 -15.70596 8.883429 15.66601 -5.219895 -18.72374 -10.16059 -85.08293 21.82786 31.51553 0 0 -39.0839 -6.909089 -1.001426 26.94294
48.49183 101.7243 3151.702 0.863941 -7.212423 -7.591125 0.1118859 18.16845 2.309159 -0 35.78683 -0 -1.391902 -2.868661 -1.099873 -3.566651 -18.39292 -7.227031 -0 19.9634 -0 -3.632036 -8.622407 18.70066 0.2720504 -0.5555766 7.07679 0.0840514 12.81483 -5.665176 1.225336 20.93474 3.03114 -2.454799 -22.13833 7.021467 -7.582628 -28.81002 11.07951 101.3955 29.836 -16.86456 -0 0 16.25923 -15.35418 8.603958 15.4956 -5.235879 -18.90169 -10.21103 -84.27627 21.78073 30.60789 0 0 -40.45094 -6.719882 -0.9148737 26.69659
48.72549 102.7603 3158.788 1.241131 -7.739625 -6.908314 -0.502596 14.43864 2.24672 -0 44.27152 -0 -1.76503 2.321439 -1.769592 -4.977903 -14.25298 -8.117654 -0 21.52992 -0 -2.517237 -9.610239 18.68019 0.1882945 -0.4086995 6.836488 0.2097428 12.58455 -5.918403 1.180426 20.93557 3.227704 -2.329039 -22.15468 7.077068 -7.588227 -28.39254 11.1306 101.9436 30.5378 -17.61951 -0 0 15.19435 -14.8175 8.107863 15.13911 -5.159683 -19.27795 -10.26877 -82.92123 21.64908 28.92109 0 0 -42.69062 -6.296817 -0.6983245 26.13929
48.95217 104.096 3165.442 1.209535 -8.202748 -5.974335 -0.5108418 8.81689 2.294438 -0 50.8894 -0 -2.240713 5.865431 -2.718703 -5.592094 -9.44791 -8.599625 -0 21.51307 -0 -1.389171 -10.54525 18.58115 0.09008432 -0.2175936 6.51573 0.3692075 12.28399 -6.2607 1.125405 20.91626 3.497165 -2.143421 -22.20173 7.152947 -7.613291 -27.84317 11.18104 102.6859 31.37102 -18.63153 -0 0 13.79224 -14.14541 7.436201 14.65418 -5.004565 -19.81915 -10.3197 -81.14683 21.35821 26.64615 0 0 -45.6148 -5.669828 -0.3524012 25.31119
49.17686 105.3781 3171.559 0.876702 -8.578343 -4.951598 -0.1159474 2.148974 2.245229 -0 53.6983 -0 -2.739825 6.892903 -3.765913 -5.596189 -4.362165 -8.849234 -0 19.91212 -0 -0.7056428 -11.66042 18.21363 -0.01322023 0.006902191 6.148737 0.546009 11.93654 -6.661474 1.064305 20.8699 3.814344 -1.909933 -22.27028 7.234137 -7.657778 -27.22293 11.2308 103.5614 32.29222 -19.79194 -0 0 12.1905 -13.39753 6.630237 14.09761 -4.783579 -20.48114 -10.34853 -79.11579 20.85693 24.00182 0 0 -48.9934 -4.878462 0.10606 24.26323
49.38958 106.2865 3177.188 0.4962703 -8.77689 -3.968416 0.3308267 -4.604628 1.874228 -0 51.83374 -0 -3.215076 5.692548 -4.67371 -5.338824 0.5352314 -8.989387 -0 17.3944 -0 -0.6154286 -13.14433 17.48776 -0.1143856 0.2539368 5.7635 0.7250271 11.56094 -7.090543 0.9999789 20.79896 4.162268 -1.638676 -22.36041 7.314681 -7.723 -26.57549 11.27675 104.5179 33.2435 -21.02012 -0 0 10.50021 -12.63426 5.726903 13.51203 -4.504966 -21.2166 -10.34344 -76.9953 20.14314 21.18634 0 0 -52.59055 -3.966038 0.6418221 23.05069
49.56375 106.6258 3182.509 0.282032 -8.680338 -3.091479 0.5527916 -10.76239 1.070501 -0 45.82413 -0 -3.618618 3.365261 -5.275662 -5.110503 4.879202 -9.018483 -0 14.80794 -0 -0.9285327 -14.97099 16.47476 -0.2090243 0.510673 5.377626 0.8944857 11.17256 -7.521526 0.9342338 20.71434 4.533329 -1.33818 -22.48034 7.399672 -7.806738 -25.92343 11.3129 105.5117 34.14852 -22.2714 -0 0 8.798796 -11.91097 4.766243 12.92291 -4.172025 -21.98034 -10.30111 -74.93663 19.273 18.35162 0 0 -56.18369 -2.978981 1.20198 21.7366
49.67077 106.3468 3187.751 0.3120754 -8.231085 -2.339646 0.4653986 -15.98817 -0.09982955 -0 37.09281 -0 -3.902336 1.075617 -5.542045 -5.050975 8.525208 -8.884154 -0 12.82987 -0 -1.354442 -16.93283 15.34466 -0.2949804 0.7593365 4.999329 1.046483 10.78832 -7.932718 0.868972 20.63117 4.9244 -1.018693 -22.63999 7.50271 -7.898656 -25.27529 11.33153 106.4989 34.91281 -23.52572 -0 0 7.142093 -11.27389 3.804201 12.34371 -3.788096 -22.73161 -10.23064 -73.06488 18.35388 15.60391 0 0 -59.56964 -1.97065 1.721436 20.40092
49.6892 105.5217 3193.14 0.5459355 -7.475174 -1.706305 0.1694065 -20.14911 -1.419419 -0 27.3211 -0 -4.056736 -0.3933811 -5.559599 -5.163818 11.51996 -8.565194 -0 11.91423 -0 -1.704635 -18.74253 14.27801 -0.371506 0.9769665 4.631271 1.176726 10.42976 -8.307064 0.8072889 20.56398 5.330013 -0.6952641 -22.84347 7.640021 -7.979598 -24.63606 11.32478 107.4263 35.43642 -24.76768 -0 0 5.580538 -10.75591 2.917672 11.78298 -3.362612 -23.43516 -10.15305 -71.472 17.52295 13.01748 0 0 -62.57041 -1.002871 2.134306 19.14262
49.60153 104.3126 3198.86 0.8705845 -6.555279 -1.173564 -0.09987225 -23.1705 -2.570252 -0 18.12825 -0 -4.133174 -0.7098995 -5.484152 -5.358551 13.99605 -8.099775 -0 12.39408 -0 -1.952664 -20.07931 13.41411 -0.438841 1.139788 4.275704 1.283544 10.12103 -8.631132 0.7535848 20.52329 5.737313 -0.3880478 -23.08456 7.82311 -8.026395 -24.01628 11.28622 108.23 35.63819 -25.96719 -0 0 4.171368 -10.37506 2.194668 11.2508 -2.91415 -24.05952 -10.09379 -70.21546 16.91706 10.65492 0 0 -65.03339 -0.1417145 2.387931 18.06733
49.38802 102.9479 3205.032 1.131571 -5.687091 -0.7252132 -0.03278092 -24.96351 -3.186994 -0 10.97307 -0 -4.226591 0.04700424 -5.490046 -5.485283 16.05654 -7.580428 -0 14.57536 -0 -2.206041 -20.59492 12.8353 -0.4977645 1.230271 3.940406 1.366036 9.883521 -8.892073 0.7125883 20.51529 6.123894 -0.1201081 -23.34717 8.052039 -8.02059 -23.43791 11.21246 108.841 35.48079 -27.06631 -0 0 2.986177 -10.13955 1.713982 10.76444 -2.470053 -24.57087 -10.07082 -69.32861 16.64507 8.594932 0 0 -66.81593 0.5487764 2.453092 17.26726
49.02822 101.702 3211.693 1.164486 -5.119753 -0.3686998 0.6531704 -25.41985 -2.953768 -0 6.996292 -0 -4.427614 1.409678 -5.707353 -5.373365 17.65575 -7.131301 -0 18.74608 -0 -2.623888 -19.95026 12.57613 -0.5482922 1.242664 3.644286 1.421806 9.731648 -9.073691 0.6879815 20.54353 6.45818 0.08543949 -23.60852 8.311143 -7.957283 -22.93704 11.10532 109.1978 34.98487 -27.97732 -0 0 2.112226 -10.0567 1.524544 10.35227 -2.064935 -24.92667 -10.08559 -68.83905 16.7695 6.959833 0 0 -67.76786 1.010563 2.327635 16.80567
48.51555 100.8608 3218.77 0.8563491 -5.057713 -0.1633061 2.045654 -24.45132 -1.76961 -0 6.646369 -0 -4.767197 2.599471 -6.150656 -4.902616 18.48818 -6.859587 -0 25.06555 -0 -3.291021 -17.94473 12.64929 -0.5873783 1.184029 3.420043 1.445445 9.672464 -9.155254 0.681494 20.60974 6.702343 0.2079312 -23.84196 8.568483 -7.850685 -22.5626 10.97443 109.2631 34.22783 -28.59528 -0 0 1.642483 -10.13775 1.631381 10.05351 -1.739444 -25.07825 -10.12352 -68.78082 17.29241 5.924035 0 0 -67.74696 1.195346 2.036431 16.71072
47.87832 100.6566 3226.067 0.2358478 -5.550022 -0.2222968 3.878746 -22.05166 0.1001411 -0 9.239969 -0 -5.183742 2.79534 -6.678456 -4.109166 17.97901 -6.784563 -0 33.32131 -0 -4.124272 -14.73789 13.05692 -0.6070616 1.070688 3.309613 1.429331 9.707895 -9.116911 0.6929626 20.71112 6.818965 0.2319531 -24.01989 8.780789 -7.733879 -22.36958 10.83801 109.0402 33.32797 -28.82468 -0 0 1.650217 -10.39063 1.990992 9.910847 -1.536925 -24.98897 -10.16386 -69.18588 18.13927 5.680858 0 0 -66.68876 1.075192 1.630886 16.9741
47.18501 101.1741 3233.313 -0.4715759 -6.42844 -0.64333 5.562937 -18.348 2.066287 -0 12.96634 -0 -5.537097 1.575175 -7.039469 -3.238074 15.5175 -6.804834 -0 42.63012 -0 -4.928893 -11.01449 13.75685 -0.5957636 0.9218754 3.34904 1.367799 9.836173 -8.951644 0.7212499 20.83554 6.781907 0.1512285 -24.11931 8.905631 -7.649407 -22.40456 10.7186 108.5795 32.41472 -28.61327 -0 0 2.154998 -10.80265 2.521992 9.955272 -1.49348 -24.66123 -10.19243 -70.05299 19.1545 6.361275 0 0 -64.69519 0.6606905 1.184353 17.55016
